<svg width="21" height="20" viewBox="0 0 21 20" fill="none" xmlns="http://www.w3.org/2000/svg">
<path d="M17.8333 13.3334V6.66669C17.833 6.37442 17.7559 6.08736 17.6096 5.83432C17.4633 5.58128 17.2531 5.37116 17 5.22502L11.1666 1.89169C10.9133 1.74541 10.6259 1.6684 10.3333 1.6684C10.0408 1.6684 9.75334 1.74541 9.49998 1.89169L3.66665 5.22502C3.41353 5.37116 3.2033 5.58128 3.05703 5.83432C2.91077 6.08736 2.83361 6.37442 2.83331 6.66669V13.3334C2.83361 13.6256 2.91077 13.9127 3.05703 14.1657C3.2033 14.4188 3.41353 14.6289 3.66665 14.775L9.49998 18.1084C9.75334 18.2546 10.0408 18.3316 10.3333 18.3316C10.6259 18.3316 10.9133 18.2546 11.1666 18.1084L17 14.775C17.2531 14.6289 17.4633 14.4188 17.6096 14.1657C17.7559 13.9127 17.833 13.6256 17.8333 13.3334Z" stroke="black" stroke-width="2" stroke-linecap="round" stroke-linejoin="round"/>
<path d="M3.05832 5.79999L10.3333 10.0083L17.6083 5.79999" stroke="black" stroke-width="2" stroke-linecap="round" stroke-linejoin="round"/>
<path d="M10.3333 18.4V10" stroke="black" stroke-width="2" stroke-linecap="round" stroke-linejoin="round"/>
</svg>
